<svg xmlns="http://www.w3.org/2000/svg" xmlns:xlink="http://www.w3.org/1999/xlink" style="isolation:isolate" viewBox="0 0 300 60.8"><g><path d=" M 49.153 3.963 L 24.131 3.963 C 24.131 14.639 15.476 23.295 4.799 23.295 L 4.799 48.317 C 4.799 49.961 6.132 51.294 7.776 51.294 L 32.532 51.294 C 33.275 51.294 33.991 51.572 34.54 52.073 L 43.702 60.447 C 44.609 61.276 46.068 60.633 46.068 59.405 L 46.068 54.27 C 46.068 52.626 47.401 51.294 49.045 51.294 L 49.153 51.294 C 50.797 51.294 52.13 49.961 52.13 48.317 L 52.13 6.94 C 52.13 5.295 50.797 3.963 49.153 3.963 Z " fill="rgb(41,41,41)"/><path d=" M 7.404 -0.02 C 3.315 -0.02 0 3.295 0 7.384 C 0 11.473 3.315 14.788 7.404 14.788 C 11.493 14.788 14.808 11.473 14.808 7.384 C 14.808 3.295 11.493 -0.02 7.404 -0.02 Z " fill="rgb(55,183,121)"/><path d=" M 36.768 28.891 C 32.679 28.891 29.364 32.205 29.364 36.294 C 29.364 40.383 32.679 43.698 36.768 43.698 C 40.857 43.698 44.172 40.383 44.172 36.294 C 44.172 32.205 40.857 28.891 36.768 28.891 Z " fill="rgb(254,254,254)"/><path d=" M 71.82 43.206 C 69.833 42.627 68.277 41.89 67.151 40.996 L 69.138 37.221 C 70.297 38.049 71.704 38.711 73.36 39.208 C 75.015 39.704 76.688 39.953 78.377 39.953 C 82.549 39.953 84.635 38.761 84.635 36.376 C 84.635 35.582 84.353 34.953 83.79 34.489 C 83.227 34.026 82.524 33.686 81.68 33.471 C 80.836 33.256 79.635 33.016 78.079 32.751 C 75.959 32.42 74.23 32.039 72.888 31.608 C 71.547 31.178 70.396 30.45 69.436 29.423 C 68.475 28.397 67.996 26.956 67.996 25.101 C 67.996 22.717 68.989 20.805 70.976 19.364 C 72.963 17.924 75.628 17.204 78.973 17.204 C 80.727 17.204 82.482 17.42 84.238 17.85 C 85.993 18.28 87.433 18.86 88.559 19.588 L 86.523 23.363 C 84.37 21.972 81.837 21.277 78.923 21.277 C 76.903 21.277 75.363 21.608 74.304 22.27 C 73.244 22.933 72.715 23.81 72.715 24.903 C 72.715 25.764 73.012 26.443 73.609 26.939 C 74.205 27.436 74.941 27.801 75.819 28.032 C 76.696 28.264 77.93 28.529 79.519 28.827 C 81.638 29.192 83.351 29.58 84.66 29.994 C 85.968 30.408 87.086 31.112 88.013 32.105 C 88.939 33.098 89.403 34.489 89.403 36.277 C 89.403 38.661 88.385 40.557 86.349 41.964 C 84.312 43.372 81.539 44.075 78.029 44.075 C 75.877 44.075 73.807 43.785 71.82 43.206 Z " fill="rgb(55,183,121)"/><path d=" M 95.363 17.452 L 100.132 17.452 L 100.132 43.777 L 95.363 43.777 L 95.363 17.452 Z  M 95.438 11.492 C 94.825 10.896 94.519 10.168 94.519 9.307 C 94.519 8.446 94.825 7.709 95.438 7.096 C 96.05 6.484 96.82 6.178 97.748 6.178 C 98.674 6.178 99.444 6.468 100.057 7.046 C 100.669 7.626 100.976 8.346 100.976 9.207 C 100.976 10.101 100.669 10.855 100.057 11.467 C 99.444 12.08 98.674 12.386 97.748 12.386 C 96.82 12.386 96.05 12.088 95.438 11.492 Z " fill="rgb(55,183,121)"/><path d=" M 125.338 37.42 C 126.712 36.692 127.789 35.673 128.567 34.365 C 129.345 33.057 129.734 31.576 129.734 29.92 C 129.734 27.37 128.89 25.308 127.201 23.736 C 125.512 22.163 123.343 21.376 120.694 21.376 C 118.012 21.376 115.827 22.163 114.138 23.736 C 112.449 25.308 111.605 27.37 111.605 29.92 C 111.605 31.576 111.994 33.057 112.772 34.365 C 113.55 35.673 114.626 36.692 116 37.42 C 117.375 38.148 118.939 38.512 120.694 38.512 C 122.416 38.512 123.964 38.148 125.338 37.42 Z  M 134.403 17.452 L 134.403 40.201 C 134.403 44.803 133.261 48.205 130.976 50.408 C 128.691 52.61 125.28 53.711 120.744 53.711 C 118.261 53.711 115.893 53.372 113.641 52.693 C 111.389 52.014 109.568 51.046 108.178 49.787 L 110.462 46.112 C 111.687 47.171 113.202 48.007 115.007 48.62 C 116.812 49.232 118.674 49.539 120.595 49.539 C 123.675 49.539 125.951 48.81 127.424 47.353 C 128.898 45.896 129.635 43.678 129.635 40.698 L 129.635 38.612 C 128.509 39.97 127.126 40.988 125.488 41.666 C 123.849 42.346 122.068 42.685 120.148 42.685 C 117.631 42.685 115.355 42.146 113.318 41.07 C 111.282 39.995 109.684 38.487 108.525 36.55 C 107.366 34.613 106.787 32.403 106.787 29.92 C 106.787 27.436 107.366 25.226 108.525 23.289 C 109.684 21.351 111.282 19.854 113.318 18.793 C 115.355 17.734 117.631 17.204 120.148 17.204 C 122.135 17.204 123.98 17.569 125.686 18.297 C 127.391 19.026 128.79 20.102 129.883 21.525 L 129.883 17.452 L 134.403 17.452 Z " fill="rgb(55,183,121)"/><path d=" M 165.521 20.11 C 167.491 22.046 168.476 24.887 168.476 28.628 L 168.476 43.777 L 163.708 43.777 L 163.708 29.174 C 163.708 26.625 163.095 24.704 161.87 23.413 C 160.645 22.121 158.89 21.475 156.605 21.475 C 154.022 21.475 151.986 22.229 150.495 23.736 C 149.006 25.243 148.261 27.403 148.261 30.217 L 148.261 43.777 L 143.493 43.777 L 143.493 6.922 L 148.261 6.922 L 148.261 21.178 C 149.254 19.92 150.553 18.942 152.159 18.247 C 153.765 17.552 155.562 17.204 157.549 17.204 C 160.893 17.204 163.55 18.172 165.521 20.11 Z " fill="rgb(55,183,121)"/><path d=" M 192.119 42.238 C 191.424 42.834 190.562 43.289 189.536 43.603 C 188.509 43.918 187.45 44.075 186.357 44.075 C 183.708 44.075 181.655 43.364 180.198 41.94 C 178.741 40.516 178.013 38.48 178.013 35.83 L 178.013 21.376 L 173.542 21.376 L 173.542 17.452 L 178.013 17.452 L 178.013 11.691 L 182.781 11.691 L 182.781 17.452 L 190.331 17.452 L 190.331 21.376 L 182.781 21.376 L 182.781 35.631 C 182.781 37.056 183.136 38.148 183.849 38.91 C 184.56 39.672 185.579 40.052 186.904 40.052 C 188.36 40.052 189.602 39.638 190.629 38.81 L 192.119 42.238 Z " fill="rgb(55,183,121)"/><path d=" M 202.176 42.411 C 199.908 41.237 198.136 39.605 196.861 37.519 C 195.586 35.433 194.949 33.066 194.949 30.416 C 194.949 27.767 195.586 25.4 196.861 23.313 C 198.136 21.227 199.908 19.597 202.176 18.421 C 204.444 17.246 207.002 16.657 209.85 16.657 C 212.664 16.657 215.123 17.246 217.226 18.421 C 219.329 19.597 220.86 21.277 221.821 23.462 L 215.811 26.691 C 214.42 24.241 212.416 23.015 209.801 23.015 C 207.78 23.015 206.108 23.678 204.784 25.002 C 203.459 26.327 202.797 28.131 202.797 30.416 C 202.797 32.701 203.459 34.506 204.784 35.83 C 206.108 37.155 207.78 37.817 209.801 37.817 C 212.449 37.817 214.452 36.592 215.811 34.141 L 221.821 37.42 C 220.86 39.539 219.329 41.195 217.226 42.386 C 215.123 43.578 212.664 44.175 209.85 44.175 C 207.002 44.175 204.444 43.587 202.176 42.411 Z " fill="rgb(41,41,41)"/><path d=" M 268.485 19.613 C 270.455 21.583 271.44 24.539 271.44 28.479 L 271.44 43.777 L 263.692 43.777 L 263.692 29.671 C 263.692 27.553 263.253 25.971 262.375 24.928 C 261.498 23.885 260.247 23.363 258.625 23.363 C 256.804 23.363 255.364 23.951 254.305 25.126 C 253.244 26.302 252.715 28.049 252.715 30.366 L 252.715 43.777 L 244.966 43.777 L 244.966 29.671 C 244.966 25.466 243.277 23.363 239.9 23.363 C 238.112 23.363 236.688 23.951 235.628 25.126 C 234.568 26.302 234.039 28.049 234.039 30.366 L 234.039 43.777 L 226.29 43.777 L 226.29 17.055 L 233.692 17.055 L 233.692 20.135 C 234.685 19.009 235.902 18.148 237.342 17.552 C 238.782 16.956 240.363 16.657 242.085 16.657 C 243.973 16.657 245.678 17.03 247.201 17.775 C 248.724 18.52 249.949 19.606 250.877 21.028 C 251.97 19.638 253.352 18.562 255.024 17.8 C 256.696 17.039 258.526 16.657 260.513 16.657 C 263.857 16.657 266.514 17.643 268.485 19.613 Z " fill="rgb(41,41,41)"/><path d=" M 280.877 43.355 C 278.758 42.809 277.069 42.122 275.811 41.294 L 278.394 35.731 C 279.586 36.493 281.026 37.114 282.715 37.593 C 284.404 38.074 286.06 38.314 287.682 38.314 C 290.96 38.314 292.599 37.503 292.599 35.88 C 292.599 35.118 292.152 34.572 291.258 34.241 C 290.365 33.91 288.99 33.628 287.135 33.396 C 284.95 33.066 283.145 32.685 281.722 32.254 C 280.298 31.824 279.064 31.062 278.021 29.969 C 276.978 28.876 276.456 27.32 276.456 25.3 C 276.456 23.612 276.945 22.113 277.922 20.805 C 278.898 19.497 280.323 18.479 282.194 17.75 C 284.064 17.023 286.274 16.657 288.825 16.657 C 290.712 16.657 292.591 16.865 294.462 17.279 C 296.333 17.693 297.881 18.264 299.106 18.992 L 296.523 24.505 C 294.172 23.182 291.606 22.519 288.825 22.519 C 287.168 22.519 285.926 22.751 285.099 23.214 C 284.271 23.678 283.857 24.274 283.857 25.002 C 283.857 25.831 284.305 26.41 285.198 26.741 C 286.092 27.072 287.516 27.386 289.47 27.684 C 291.656 28.049 293.444 28.438 294.835 28.852 C 296.225 29.266 297.434 30.019 298.46 31.112 C 299.486 32.204 300 33.728 300 35.681 C 300 37.337 299.503 38.81 298.51 40.102 C 297.516 41.393 296.067 42.395 294.164 43.106 C 292.26 43.818 289.999 44.175 287.384 44.175 C 285.165 44.175 282.996 43.901 280.877 43.355 Z " fill="rgb(41,41,41)"/></g></svg>