<svg
	xmlns="http://www.w3.org/2000/svg" version="1.1"
	xmlns:xlink="http://www.w3.org/1999/xlink"
	xmlns:svgjs="http://svgjs.com/svgjs" width="512pt" height="512pt">
	<svg
		xmlns="http://www.w3.org/2000/svg"
		xmlns:xlink="http://www.w3.org/1999/xlink" style="isolation:isolate" viewBox="0 0 512 512" width="512pt" height="512pt">
		<g>
			<path id="smol" d=" M 112.812 22.58 C 81.433 22.58 56 48.016 56 79.392 C 56 110.767 81.433 136.202 112.812 136.202 C 144.182 136.202 169.625 110.767 169.625 79.392 C 169.625 48.016 144.182 22.58 112.812 22.58 Z " fill="rgb(55,183,121)"></path>
			<path id="big" d=" M 338.123 358.039 C 306.754 358.039 281.321 332.603 281.321 301.228 C 281.321 269.852 306.754 244.417 338.123 244.417 C 369.503 244.417 394.935 269.852 394.935 301.228 C 394.935 332.603 369.503 358.039 338.123 358.039 Z  M 433.165 53.14 L 241.163 53.14 C 241.163 135.065 174.75 201.479 92.819 201.479 L 92.819 393.479 C 92.819 406.095 103.049 416.322 115.664 416.322 L 305.627 416.322 C 311.32 416.322 316.821 418.455 321.033 422.303 L 391.343 486.56 C 398.295 492.918 409.489 487.983 409.489 478.559 L 409.489 439.163 C 409.489 426.549 419.718 416.322 432.333 416.322 L 433.165 416.322 C 445.78 416.322 456 406.095 456 393.479 L 456 75.983 C 456 63.367 445.78 53.14 433.165 53.14 Z " fill="rgb(41,41,41)"></path>
		</g>
	</svg>
	<style>
    @media (prefers-color-scheme: dark) {
        #smol {
            fill: rgb(255,255,255);
        }
        #big {
            fill: rgb(55,183,121);
        }
    }
    </style>
</svg>