<?xml version="1.0" encoding="UTF-8" standalone="no"?><!-- Generator: Gravit.io --><svg xmlns="http://www.w3.org/2000/svg" xmlns:xlink="http://www.w3.org/1999/xlink" style="isolation:isolate" viewBox="0 0 1024 1024" width="1024pt" height="1024pt"><g><path d=" M 315.117 191.048 C 271.97 191.048 237 226.022 237 269.163 C 237 312.305 271.97 347.278 315.117 347.278 C 358.25 347.278 393.234 312.305 393.234 269.163 C 393.234 226.022 358.25 191.048 315.117 191.048 Z " fill="rgb(55,183,121)"/><path d=" M 624.919 652.303 C 581.786 652.303 546.816 617.329 546.816 574.188 C 546.816 531.046 581.786 496.074 624.919 496.074 C 668.066 496.074 703.036 531.046 703.036 574.188 C 703.036 617.329 668.066 652.303 624.919 652.303 Z  M 755.603 233.068 L 491.599 233.068 C 491.599 345.715 400.281 437.034 287.627 437.034 L 287.627 701.034 C 287.627 718.38 301.693 732.442 319.038 732.442 L 580.237 732.442 C 588.066 732.442 595.629 735.376 601.42 740.667 L 698.096 829.02 C 707.655 837.762 723.047 830.976 723.047 818.019 L 723.047 763.85 C 723.047 746.504 737.113 732.442 754.458 732.442 L 755.603 732.442 C 772.948 732.442 787 718.38 787 701.034 L 787 264.476 C 787 247.129 772.948 233.068 755.603 233.068 Z " fill="rgb(41,41,41)"/></g></svg>